# MagicaVoxel @ Ephtracy

# group
o 

# material
mtllib platform 3.mtl
usemtl palette

# normals
vn -1 0 0
vn 1 0 0
vn 0 0 1
vn 0 0 -1
vn 0 -1 0
vn 0 1 0

# texcoords
vt 0.0214844 0.5
vt 0.970703 0.5
vt 0.978516 0.5
vt 0.994141 0.5

# verts
v -1.5 0 1.5
v -1.5 0 1.3
v -1.5 0 1.1
v -1.5 0 0.9
v -1.5 0 0.7
v -1.5 0 0.5
v -1.5 0 0.3
v -1.5 0 0.1
v -1.5 0 -0.1
v -1.5 0 -0.3
v -1.5 0 -0.5
v -1.5 0 -0.7
v -1.5 0 -0.9
v -1.5 0 -1.1
v -1.5 0 -1.3
v -1.5 0 -1.5
v -1.5 0.4 1.5
v -1.5 0.4 1.3
v -1.5 0.4 1.1
v -1.5 0.4 0.9
v -1.5 0.4 0.7
v -1.5 0.4 0.5
v -1.5 0.4 0.3
v -1.5 0.4 0.1
v -1.5 0.4 -0.1
v -1.5 0.4 -0.3
v -1.5 0.4 -0.5
v -1.5 0.4 -0.7
v -1.5 0.4 -0.9
v -1.5 0.4 -1.1
v -1.5 0.4 -1.3
v -1.5 0.4 -1.5
v 1.5 0 1.5
v 1.5 0 1.3
v 1.5 0 1.1
v 1.5 0 0.9
v 1.5 0 0.7
v 1.5 0 0.5
v 1.5 0 0.3
v 1.5 0 0.1
v 1.5 0 -0.1
v 1.5 0 -0.3
v 1.5 0 -0.5
v 1.5 0 -0.7
v 1.5 0 -0.9
v 1.5 0 -1.1
v 1.5 0 -1.3
v 1.5 0 -1.5
v 1.5 0.4 1.5
v 1.5 0.4 1.3
v 1.5 0.4 1.1
v 1.5 0.4 0.9
v 1.5 0.4 0.7
v 1.5 0.4 0.5
v 1.5 0.4 0.3
v 1.5 0.4 0.1
v 1.5 0.4 -0.1
v 1.5 0.4 -0.3
v 1.5 0.4 -0.5
v 1.5 0.4 -0.7
v 1.5 0.4 -0.9
v 1.5 0.4 -1.1
v 1.5 0.4 -1.3
v 1.5 0.4 -1.5
v -1.5 0 1.5
v -1.5 0.4 1.5
v -1.3 0 1.5
v -1.3 0.4 1.5
v -1.1 0 1.5
v -1.1 0.4 1.5
v -0.9 0 1.5
v -0.9 0.4 1.5
v -0.7 0 1.5
v -0.7 0.4 1.5
v -0.5 0 1.5
v -0.5 0.4 1.5
v -0.3 0 1.5
v -0.3 0.4 1.5
v -0.1 0 1.5
v -0.1 0.4 1.5
v 0.1 0 1.5
v 0.1 0.4 1.5
v 0.3 0 1.5
v 0.3 0.4 1.5
v 0.5 0 1.5
v 0.5 0.4 1.5
v 0.7 0 1.5
v 0.7 0.4 1.5
v 0.9 0 1.5
v 0.9 0.4 1.5
v 1.1 0 1.5
v 1.1 0.4 1.5
v 1.3 0 1.5
v 1.3 0.4 1.5
v 1.5 0 1.5
v 1.5 0.4 1.5
v -1.5 0 -1.5
v -1.5 0.4 -1.5
v -1.3 0 -1.5
v -1.3 0.4 -1.5
v -1.1 0 -1.5
v -1.1 0.4 -1.5
v -0.9 0 -1.5
v -0.9 0.4 -1.5
v -0.7 0 -1.5
v -0.7 0.4 -1.5
v -0.5 0 -1.5
v -0.5 0.4 -1.5
v -0.3 0 -1.5
v -0.3 0.4 -1.5
v -0.1 0 -1.5
v -0.1 0.4 -1.5
v 0.1 0 -1.5
v 0.1 0.4 -1.5
v 0.3 0 -1.5
v 0.3 0.4 -1.5
v 0.5 0 -1.5
v 0.5 0.4 -1.5
v 0.7 0 -1.5
v 0.7 0.4 -1.5
v 0.9 0 -1.5
v 0.9 0.4 -1.5
v 1.1 0 -1.5
v 1.1 0.4 -1.5
v 1.3 0 -1.5
v 1.3 0.4 -1.5
v 1.5 0 -1.5
v 1.5 0.4 -1.5
v -1.5 0 1.5
v -1.3 0 1.5
v -1.1 0 1.5
v -0.9 0 1.5
v -0.7 0 1.5
v -0.5 0 1.5
v -0.3 0 1.5
v -0.1 0 1.5
v 0.1 0 1.5
v 0.3 0 1.5
v 0.5 0 1.5
v 0.7 0 1.5
v 0.9 0 1.5
v 1.1 0 1.5
v 1.3 0 1.5
v 1.5 0 1.5
v -1.5 0 1.3
v -1.3 0 1.3
v -1.1 0 1.3
v -0.9 0 1.3
v -0.7 0 1.3
v -0.5 0 1.3
v -0.3 0 1.3
v -0.1 0 1.3
v 0.1 0 1.3
v 0.3 0 1.3
v 0.5 0 1.3
v 0.7 0 1.3
v 0.9 0 1.3
v 1.1 0 1.3
v 1.3 0 1.3
v 1.5 0 1.3
v -1.2 0 1.2
v -1.1 0 1.2
v 1.1 0 1.2
v 1.2 0 1.2
v -1.5 0 1.1
v -1.3 0 1.1
v -1.2 0 1.1
v -1.1 0 1.1
v 1.1 0 1.1
v 1.2 0 1.1
v 1.3 0 1.1
v 1.5 0 1.1
v -1.5 0 0.9
v -1.3 0 0.9
v 1.3 0 0.9
v 1.5 0 0.9
v -1.5 0 0.7
v -1.3 0 0.7
v 1.3 0 0.7
v 1.5 0 0.7
v -1.5 0 0.5
v -1.3 0 0.5
v 1.3 0 0.5
v 1.5 0 0.5
v -1.5 0 0.3
v -1.3 0 0.3
v 1.3 0 0.3
v 1.5 0 0.3
v -1.5 0 0.1
v -1.3 0 0.1
v 1.3 0 0.1
v 1.5 0 0.1
v -1.5 0 -0.1
v -1.3 0 -0.1
v 1.3 0 -0.1
v 1.5 0 -0.1
v -1.5 0 -0.3
v -1.3 0 -0.3
v 1.3 0 -0.3
v 1.5 0 -0.3
v -1.5 0 -0.5
v -1.3 0 -0.5
v 1.3 0 -0.5
v 1.5 0 -0.5
v -1.5 0 -0.7
v -1.3 0 -0.7
v 1.3 0 -0.7
v 1.5 0 -0.7
v -1.5 0 -0.9
v -1.3 0 -0.9
v 1.3 0 -0.9
v 1.5 0 -0.9
v -1.5 0 -1.1
v -1.3 0 -1.1
v -1.2 0 -1.1
v -1.1 0 -1.1
v 1.1 0 -1.1
v 1.2 0 -1.1
v 1.3 0 -1.1
v 1.5 0 -1.1
v -1.2 0 -1.2
v -1.1 0 -1.2
v 1.1 0 -1.2
v 1.2 0 -1.2
v -1.5 0 -1.3
v -1.3 0 -1.3
v -1.1 0 -1.3
v -0.9 0 -1.3
v -0.7 0 -1.3
v -0.5 0 -1.3
v -0.3 0 -1.3
v -0.1 0 -1.3
v 0.1 0 -1.3
v 0.3 0 -1.3
v 0.5 0 -1.3
v 0.7 0 -1.3
v 0.9 0 -1.3
v 1.1 0 -1.3
v 1.3 0 -1.3
v 1.5 0 -1.3
v -1.5 0 -1.5
v -1.3 0 -1.5
v -1.1 0 -1.5
v -0.9 0 -1.5
v -0.7 0 -1.5
v -0.5 0 -1.5
v -0.3 0 -1.5
v -0.1 0 -1.5
v 0.1 0 -1.5
v 0.3 0 -1.5
v 0.5 0 -1.5
v 0.7 0 -1.5
v 0.9 0 -1.5
v 1.1 0 -1.5
v 1.3 0 -1.5
v 1.5 0 -1.5
v -1.5 0.4 1.5
v -1.3 0.4 1.5
v -1.1 0.4 1.5
v -0.9 0.4 1.5
v -0.7 0.4 1.5
v -0.5 0.4 1.5
v -0.3 0.4 1.5
v -0.1 0.4 1.5
v 0.1 0.4 1.5
v 0.3 0.4 1.5
v 0.5 0.4 1.5
v 0.7 0.4 1.5
v 0.9 0.4 1.5
v 1.1 0.4 1.5
v 1.3 0.4 1.5
v 1.5 0.4 1.5
v -1.5 0.4 1.3
v -1.3 0.4 1.3
v -1.1 0.4 1.3
v -0.9 0.4 1.3
v -0.7 0.4 1.3
v -0.5 0.4 1.3
v -0.3 0.4 1.3
v -0.1 0.4 1.3
v 0.1 0.4 1.3
v 0.3 0.4 1.3
v 0.5 0.4 1.3
v 0.7 0.4 1.3
v 0.9 0.4 1.3
v 1.1 0.4 1.3
v 1.3 0.4 1.3
v 1.5 0.4 1.3
v -1.2 0.4 1.2
v -1.1 0.4 1.2
v 1.1 0.4 1.2
v 1.2 0.4 1.2
v -1.5 0.4 1.1
v -1.3 0.4 1.1
v -1.2 0.4 1.1
v -1.1 0.4 1.1
v 1.1 0.4 1.1
v 1.2 0.4 1.1
v 1.3 0.4 1.1
v 1.5 0.4 1.1
v -1.5 0.4 0.9
v -1.3 0.4 0.9
v 1.3 0.4 0.9
v 1.5 0.4 0.9
v -1.5 0.4 0.7
v -1.3 0.4 0.7
v 1.3 0.4 0.7
v 1.5 0.4 0.7
v -1.5 0.4 0.5
v -1.3 0.4 0.5
v 1.3 0.4 0.5
v 1.5 0.4 0.5
v -1.5 0.4 0.3
v -1.3 0.4 0.3
v 1.3 0.4 0.3
v 1.5 0.4 0.3
v -1.5 0.4 0.1
v -1.3 0.4 0.1
v 1.3 0.4 0.1
v 1.5 0.4 0.1
v -1.5 0.4 -0.1
v -1.3 0.4 -0.1
v 1.3 0.4 -0.1
v 1.5 0.4 -0.1
v -1.5 0.4 -0.3
v -1.3 0.4 -0.3
v 1.3 0.4 -0.3
v 1.5 0.4 -0.3
v -1.5 0.4 -0.5
v -1.3 0.4 -0.5
v 1.3 0.4 -0.5
v 1.5 0.4 -0.5
v -1.5 0.4 -0.7
v -1.3 0.4 -0.7
v 1.3 0.4 -0.7
v 1.5 0.4 -0.7
v -1.5 0.4 -0.9
v -1.3 0.4 -0.9
v 1.3 0.4 -0.9
v 1.5 0.4 -0.9
v -1.5 0.4 -1.1
v -1.3 0.4 -1.1
v -1.2 0.4 -1.1
v -1.1 0.4 -1.1
v 1.1 0.4 -1.1
v 1.2 0.4 -1.1
v 1.3 0.4 -1.1
v 1.5 0.4 -1.1
v -1.2 0.4 -1.2
v -1.1 0.4 -1.2
v 1.1 0.4 -1.2
v 1.2 0.4 -1.2
v -1.5 0.4 -1.3
v -1.3 0.4 -1.3
v -1.1 0.4 -1.3
v -0.9 0.4 -1.3
v -0.7 0.4 -1.3
v -0.5 0.4 -1.3
v -0.3 0.4 -1.3
v -0.1 0.4 -1.3
v 0.1 0.4 -1.3
v 0.3 0.4 -1.3
v 0.5 0.4 -1.3
v 0.7 0.4 -1.3
v 0.9 0.4 -1.3
v 1.1 0.4 -1.3
v 1.3 0.4 -1.3
v 1.5 0.4 -1.3
v -1.5 0.4 -1.5
v -1.3 0.4 -1.5
v -1.1 0.4 -1.5
v -0.9 0.4 -1.5
v -0.7 0.4 -1.5
v -0.5 0.4 -1.5
v -0.3 0.4 -1.5
v -0.1 0.4 -1.5
v 0.1 0.4 -1.5
v 0.3 0.4 -1.5
v 0.5 0.4 -1.5
v 0.7 0.4 -1.5
v 0.9 0.4 -1.5
v 1.1 0.4 -1.5
v 1.3 0.4 -1.5
v 1.5 0.4 -1.5

# faces
f 17/1/1 2/1/1 1/1/1
f 18/4/1 3/4/1 2/4/1
f 18/1/1 2/1/1 17/1/1
f 19/1/1 4/1/1 3/1/1
f 19/4/1 3/4/1 18/4/1
f 20/4/1 5/4/1 4/4/1
f 20/1/1 4/1/1 19/1/1
f 21/1/1 6/1/1 5/1/1
f 21/4/1 5/4/1 20/4/1
f 22/4/1 7/4/1 6/4/1
f 22/1/1 6/1/1 21/1/1
f 23/1/1 8/1/1 7/1/1
f 23/4/1 7/4/1 22/4/1
f 24/4/1 9/4/1 8/4/1
f 24/1/1 8/1/1 23/1/1
f 25/1/1 10/1/1 9/1/1
f 25/4/1 9/4/1 24/4/1
f 26/4/1 11/4/1 10/4/1
f 26/1/1 10/1/1 25/1/1
f 27/1/1 12/1/1 11/1/1
f 27/4/1 11/4/1 26/4/1
f 28/4/1 13/4/1 12/4/1
f 28/1/1 12/1/1 27/1/1
f 29/1/1 14/1/1 13/1/1
f 29/4/1 13/4/1 28/4/1
f 30/4/1 15/4/1 14/4/1
f 30/1/1 14/1/1 29/1/1
f 31/1/1 16/1/1 15/1/1
f 31/4/1 15/4/1 30/4/1
f 32/1/1 16/1/1 31/1/1
f 33/1/2 34/1/2 49/1/2
f 34/4/2 35/4/2 50/4/2
f 49/1/2 34/1/2 50/1/2
f 35/1/2 36/1/2 51/1/2
f 50/4/2 35/4/2 51/4/2
f 36/4/2 37/4/2 52/4/2
f 51/1/2 36/1/2 52/1/2
f 37/1/2 38/1/2 53/1/2
f 52/4/2 37/4/2 53/4/2
f 38/4/2 39/4/2 54/4/2
f 53/1/2 38/1/2 54/1/2
f 39/1/2 40/1/2 55/1/2
f 54/4/2 39/4/2 55/4/2
f 40/4/2 41/4/2 56/4/2
f 55/1/2 40/1/2 56/1/2
f 41/1/2 42/1/2 57/1/2
f 56/4/2 41/4/2 57/4/2
f 42/4/2 43/4/2 58/4/2
f 57/1/2 42/1/2 58/1/2
f 43/1/2 44/1/2 59/1/2
f 58/4/2 43/4/2 59/4/2
f 44/4/2 45/4/2 60/4/2
f 59/1/2 44/1/2 60/1/2
f 45/1/2 46/1/2 61/1/2
f 60/4/2 45/4/2 61/4/2
f 46/4/2 47/4/2 62/4/2
f 61/1/2 46/1/2 62/1/2
f 47/1/2 48/1/2 63/1/2
f 62/4/2 47/4/2 63/4/2
f 63/1/2 48/1/2 64/1/2
f 67/1/3 66/1/3 65/1/3
f 68/1/3 66/1/3 67/1/3
f 69/4/3 68/4/3 67/4/3
f 70/4/3 68/4/3 69/4/3
f 71/1/3 70/1/3 69/1/3
f 72/1/3 70/1/3 71/1/3
f 73/4/3 72/4/3 71/4/3
f 74/4/3 72/4/3 73/4/3
f 75/1/3 74/1/3 73/1/3
f 76/1/3 74/1/3 75/1/3
f 77/4/3 76/4/3 75/4/3
f 78/4/3 76/4/3 77/4/3
f 79/1/3 78/1/3 77/1/3
f 80/1/3 78/1/3 79/1/3
f 81/4/3 80/4/3 79/4/3
f 82/4/3 80/4/3 81/4/3
f 83/1/3 82/1/3 81/1/3
f 84/1/3 82/1/3 83/1/3
f 85/4/3 84/4/3 83/4/3
f 86/4/3 84/4/3 85/4/3
f 87/1/3 86/1/3 85/1/3
f 88/1/3 86/1/3 87/1/3
f 89/4/3 88/4/3 87/4/3
f 90/4/3 88/4/3 89/4/3
f 91/1/3 90/1/3 89/1/3
f 92/1/3 90/1/3 91/1/3
f 93/4/3 92/4/3 91/4/3
f 94/4/3 92/4/3 93/4/3
f 95/1/3 94/1/3 93/1/3
f 96/1/3 94/1/3 95/1/3
f 97/1/4 98/1/4 99/1/4
f 99/1/4 98/1/4 100/1/4
f 99/4/4 100/4/4 101/4/4
f 101/4/4 100/4/4 102/4/4
f 101/1/4 102/1/4 103/1/4
f 103/1/4 102/1/4 104/1/4
f 103/4/4 104/4/4 105/4/4
f 105/4/4 104/4/4 106/4/4
f 105/1/4 106/1/4 107/1/4
f 107/1/4 106/1/4 108/1/4
f 107/4/4 108/4/4 109/4/4
f 109/4/4 108/4/4 110/4/4
f 109/1/4 110/1/4 111/1/4
f 111/1/4 110/1/4 112/1/4
f 111/4/4 112/4/4 113/4/4
f 113/4/4 112/4/4 114/4/4
f 113/1/4 114/1/4 115/1/4
f 115/1/4 114/1/4 116/1/4
f 115/4/4 116/4/4 117/4/4
f 117/4/4 116/4/4 118/4/4
f 117/1/4 118/1/4 119/1/4
f 119/1/4 118/1/4 120/1/4
f 119/4/4 120/4/4 121/4/4
f 121/4/4 120/4/4 122/4/4
f 121/1/4 122/1/4 123/1/4
f 123/1/4 122/1/4 124/1/4
f 123/4/4 124/4/4 125/4/4
f 125/4/4 124/4/4 126/4/4
f 125/1/4 126/1/4 127/1/4
f 127/1/4 126/1/4 128/1/4
f 145/1/5 130/1/5 129/1/5
f 146/4/5 131/4/5 130/4/5
f 146/1/5 130/1/5 145/1/5
f 147/1/5 132/1/5 131/1/5
f 147/4/5 131/4/5 146/4/5
f 148/4/5 133/4/5 132/4/5
f 148/1/5 132/1/5 147/1/5
f 149/1/5 134/1/5 133/1/5
f 149/4/5 133/4/5 148/4/5
f 150/4/5 135/4/5 134/4/5
f 150/1/5 134/1/5 149/1/5
f 151/1/5 136/1/5 135/1/5
f 151/4/5 135/4/5 150/4/5
f 152/4/5 137/4/5 136/4/5
f 152/1/5 136/1/5 151/1/5
f 153/1/5 138/1/5 137/1/5
f 153/4/5 137/4/5 152/4/5
f 154/4/5 139/4/5 138/4/5
f 154/1/5 138/1/5 153/1/5
f 155/1/5 140/1/5 139/1/5
f 155/4/5 139/4/5 154/4/5
f 156/4/5 141/4/5 140/4/5
f 156/1/5 140/1/5 155/1/5
f 157/1/5 142/1/5 141/1/5
f 157/4/5 141/4/5 156/4/5
f 158/4/5 143/4/5 142/4/5
f 158/1/5 142/1/5 157/1/5
f 159/1/5 144/1/5 143/1/5
f 159/4/5 143/4/5 158/4/5
f 160/1/5 144/1/5 159/1/5
f 161/3/5 158/3/5 157/3/5
f 161/3/5 147/3/5 146/3/5
f 161/3/5 148/3/5 147/3/5
f 161/3/5 159/3/5 158/3/5
f 161/3/5 157/3/5 156/3/5
f 161/3/5 156/3/5 155/3/5
f 161/3/5 155/3/5 154/3/5
f 161/3/5 154/3/5 153/3/5
f 161/3/5 153/3/5 152/3/5
f 161/3/5 152/3/5 151/3/5
f 161/3/5 151/3/5 150/3/5
f 161/3/5 150/3/5 149/3/5
f 161/3/5 149/3/5 148/3/5
f 162/3/5 159/3/5 161/3/5
f 163/3/5 159/3/5 162/3/5
f 164/3/5 159/3/5 163/3/5
f 165/4/5 146/4/5 145/4/5
f 166/3/5 161/3/5 146/3/5
f 166/4/5 146/4/5 165/4/5
f 167/2/5 162/2/5 161/2/5
f 167/3/5 161/3/5 166/3/5
f 168/3/5 163/3/5 162/3/5
f 168/2/5 162/2/5 167/2/5
f 169/2/5 164/2/5 163/2/5
f 169/3/5 163/3/5 168/3/5
f 170/3/5 159/3/5 164/3/5
f 170/2/5 164/2/5 169/2/5
f 171/4/5 160/4/5 159/4/5
f 171/3/5 159/3/5 170/3/5
f 172/4/5 160/4/5 171/4/5
f 173/1/5 166/1/5 165/1/5
f 174/3/5 169/3/5 168/3/5
f 174/1/5 166/1/5 173/1/5
f 174/3/5 170/3/5 169/3/5
f 174/3/5 167/3/5 166/3/5
f 174/3/5 171/3/5 170/3/5
f 174/3/5 168/3/5 167/3/5
f 175/1/5 172/1/5 171/1/5
f 175/3/5 171/3/5 174/3/5
f 176/1/5 172/1/5 175/1/5
f 177/4/5 174/4/5 173/4/5
f 178/3/5 175/3/5 174/3/5
f 178/4/5 174/4/5 177/4/5
f 179/4/5 176/4/5 175/4/5
f 179/3/5 175/3/5 178/3/5
f 180/4/5 176/4/5 179/4/5
f 181/1/5 178/1/5 177/1/5
f 182/3/5 179/3/5 178/3/5
f 182/1/5 178/1/5 181/1/5
f 183/1/5 180/1/5 179/1/5
f 183/3/5 179/3/5 182/3/5
f 184/1/5 180/1/5 183/1/5
f 185/4/5 182/4/5 181/4/5
f 186/3/5 183/3/5 182/3/5
f 186/4/5 182/4/5 185/4/5
f 187/4/5 184/4/5 183/4/5
f 187/3/5 183/3/5 186/3/5
f 188/4/5 184/4/5 187/4/5
f 189/1/5 186/1/5 185/1/5
f 190/3/5 187/3/5 186/3/5
f 190/1/5 186/1/5 189/1/5
f 191/1/5 188/1/5 187/1/5
f 191/3/5 187/3/5 190/3/5
f 192/1/5 188/1/5 191/1/5
f 193/4/5 190/4/5 189/4/5
f 194/3/5 191/3/5 190/3/5
f 194/4/5 190/4/5 193/4/5
f 195/4/5 192/4/5 191/4/5
f 195/3/5 191/3/5 194/3/5
f 196/4/5 192/4/5 195/4/5
f 197/1/5 194/1/5 193/1/5
f 198/3/5 195/3/5 194/3/5
f 198/1/5 194/1/5 197/1/5
f 199/1/5 196/1/5 195/1/5
f 199/3/5 195/3/5 198/3/5
f 200/1/5 196/1/5 199/1/5
f 201/4/5 198/4/5 197/4/5
f 202/3/5 199/3/5 198/3/5
f 202/4/5 198/4/5 201/4/5
f 203/4/5 200/4/5 199/4/5
f 203/3/5 199/3/5 202/3/5
f 204/4/5 200/4/5 203/4/5
f 205/1/5 202/1/5 201/1/5
f 206/3/5 203/3/5 202/3/5
f 206/1/5 202/1/5 205/1/5
f 207/1/5 204/1/5 203/1/5
f 207/3/5 203/3/5 206/3/5
f 208/1/5 204/1/5 207/1/5
f 209/4/5 206/4/5 205/4/5
f 210/3/5 207/3/5 206/3/5
f 210/4/5 206/4/5 209/4/5
f 211/4/5 208/4/5 207/4/5
f 211/3/5 207/3/5 210/3/5
f 212/4/5 208/4/5 211/4/5
f 213/1/5 210/1/5 209/1/5
f 214/3/5 211/3/5 210/3/5
f 214/1/5 210/1/5 213/1/5
f 215/3/5 211/3/5 214/3/5
f 216/3/5 211/3/5 215/3/5
f 217/3/5 211/3/5 216/3/5
f 218/3/5 211/3/5 217/3/5
f 219/1/5 212/1/5 211/1/5
f 219/3/5 211/3/5 218/3/5
f 220/1/5 212/1/5 219/1/5
f 221/3/5 215/3/5 214/3/5
f 221/2/5 216/2/5 215/2/5
f 222/3/5 217/3/5 216/3/5
f 222/2/5 216/2/5 221/2/5
f 223/2/5 218/2/5 217/2/5
f 223/3/5 217/3/5 222/3/5
f 224/3/5 219/3/5 218/3/5
f 224/2/5 218/2/5 223/2/5
f 225/4/5 214/4/5 213/4/5
f 226/3/5 222/3/5 221/3/5
f 226/4/5 214/4/5 225/4/5
f 226/3/5 221/3/5 214/3/5
f 226/3/5 224/3/5 223/3/5
f 226/3/5 223/3/5 222/3/5
f 227/3/5 224/3/5 226/3/5
f 228/3/5 224/3/5 227/3/5
f 229/3/5 224/3/5 228/3/5
f 230/3/5 224/3/5 229/3/5
f 231/3/5 224/3/5 230/3/5
f 232/3/5 224/3/5 231/3/5
f 233/3/5 224/3/5 232/3/5
f 234/3/5 224/3/5 233/3/5
f 235/3/5 224/3/5 234/3/5
f 236/3/5 224/3/5 235/3/5
f 237/3/5 224/3/5 236/3/5
f 238/3/5 224/3/5 237/3/5
f 239/3/5 219/3/5 224/3/5
f 239/3/5 224/3/5 238/3/5
f 239/4/5 220/4/5 219/4/5
f 240/4/5 220/4/5 239/4/5
f 241/1/5 226/1/5 225/1/5
f 242/4/5 227/4/5 226/4/5
f 242/1/5 226/1/5 241/1/5
f 243/1/5 228/1/5 227/1/5
f 243/4/5 227/4/5 242/4/5
f 244/4/5 229/4/5 228/4/5
f 244/1/5 228/1/5 243/1/5
f 245/1/5 230/1/5 229/1/5
f 245/4/5 229/4/5 244/4/5
f 246/4/5 231/4/5 230/4/5
f 246/1/5 230/1/5 245/1/5
f 247/1/5 232/1/5 231/1/5
f 247/4/5 231/4/5 246/4/5
f 248/4/5 233/4/5 232/4/5
f 248/1/5 232/1/5 247/1/5
f 249/1/5 234/1/5 233/1/5
f 249/4/5 233/4/5 248/4/5
f 250/4/5 235/4/5 234/4/5
f 250/1/5 234/1/5 249/1/5
f 251/1/5 236/1/5 235/1/5
f 251/4/5 235/4/5 250/4/5
f 252/4/5 237/4/5 236/4/5
f 252/1/5 236/1/5 251/1/5
f 253/1/5 238/1/5 237/1/5
f 253/4/5 237/4/5 252/4/5
f 254/4/5 239/4/5 238/4/5
f 254/1/5 238/1/5 253/1/5
f 255/1/5 240/1/5 239/1/5
f 255/4/5 239/4/5 254/4/5
f 256/1/5 240/1/5 255/1/5
f 257/1/6 258/1/6 273/1/6
f 258/4/6 259/4/6 274/4/6
f 273/1/6 258/1/6 274/1/6
f 259/1/6 260/1/6 275/1/6
f 274/4/6 259/4/6 275/4/6
f 260/4/6 261/4/6 276/4/6
f 275/1/6 260/1/6 276/1/6
f 261/1/6 262/1/6 277/1/6
f 276/4/6 261/4/6 277/4/6
f 262/4/6 263/4/6 278/4/6
f 277/1/6 262/1/6 278/1/6
f 263/1/6 264/1/6 279/1/6
f 278/4/6 263/4/6 279/4/6
f 264/4/6 265/4/6 280/4/6
f 279/1/6 264/1/6 280/1/6
f 265/1/6 266/1/6 281/1/6
f 280/4/6 265/4/6 281/4/6
f 266/4/6 267/4/6 282/4/6
f 281/1/6 266/1/6 282/1/6
f 267/1/6 268/1/6 283/1/6
f 282/4/6 267/4/6 283/4/6
f 268/4/6 269/4/6 284/4/6
f 283/1/6 268/1/6 284/1/6
f 269/1/6 270/1/6 285/1/6
f 284/4/6 269/4/6 285/4/6
f 270/4/6 271/4/6 286/4/6
f 285/1/6 270/1/6 286/1/6
f 271/1/6 272/1/6 287/1/6
f 286/4/6 271/4/6 287/4/6
f 287/1/6 272/1/6 288/1/6
f 285/3/6 286/3/6 289/3/6
f 274/3/6 275/3/6 289/3/6
f 275/3/6 276/3/6 289/3/6
f 286/3/6 287/3/6 289/3/6
f 284/3/6 285/3/6 289/3/6
f 283/3/6 284/3/6 289/3/6
f 282/3/6 283/3/6 289/3/6
f 281/3/6 282/3/6 289/3/6
f 280/3/6 281/3/6 289/3/6
f 279/3/6 280/3/6 289/3/6
f 278/3/6 279/3/6 289/3/6
f 277/3/6 278/3/6 289/3/6
f 276/3/6 277/3/6 289/3/6
f 289/3/6 287/3/6 290/3/6
f 290/3/6 287/3/6 291/3/6
f 291/3/6 287/3/6 292/3/6
f 273/4/6 274/4/6 293/4/6
f 274/3/6 289/3/6 294/3/6
f 293/4/6 274/4/6 294/4/6
f 289/2/6 290/2/6 295/2/6
f 294/3/6 289/3/6 295/3/6
f 290/3/6 291/3/6 296/3/6
f 295/2/6 290/2/6 296/2/6
f 291/2/6 292/2/6 297/2/6
f 296/3/6 291/3/6 297/3/6
f 292/3/6 287/3/6 298/3/6
f 297/2/6 292/2/6 298/2/6
f 287/4/6 288/4/6 299/4/6
f 298/3/6 287/3/6 299/3/6
f 299/4/6 288/4/6 300/4/6
f 293/1/6 294/1/6 301/1/6
f 296/3/6 297/3/6 302/3/6
f 301/1/6 294/1/6 302/1/6
f 297/3/6 298/3/6 302/3/6
f 294/3/6 295/3/6 302/3/6
f 298/3/6 299/3/6 302/3/6
f 295/3/6 296/3/6 302/3/6
f 299/1/6 300/1/6 303/1/6
f 302/3/6 299/3/6 303/3/6
f 303/1/6 300/1/6 304/1/6
f 301/4/6 302/4/6 305/4/6
f 302/3/6 303/3/6 306/3/6
f 305/4/6 302/4/6 306/4/6
f 303/4/6 304/4/6 307/4/6
f 306/3/6 303/3/6 307/3/6
f 307/4/6 304/4/6 308/4/6
f 305/1/6 306/1/6 309/1/6
f 306/3/6 307/3/6 310/3/6
f 309/1/6 306/1/6 310/1/6
f 307/1/6 308/1/6 311/1/6
f 310/3/6 307/3/6 311/3/6
f 311/1/6 308/1/6 312/1/6
f 309/4/6 310/4/6 313/4/6
f 310/3/6 311/3/6 314/3/6
f 313/4/6 310/4/6 314/4/6
f 311/4/6 312/4/6 315/4/6
f 314/3/6 311/3/6 315/3/6
f 315/4/6 312/4/6 316/4/6
f 313/1/6 314/1/6 317/1/6
f 314/3/6 315/3/6 318/3/6
f 317/1/6 314/1/6 318/1/6
f 315/1/6 316/1/6 319/1/6
f 318/3/6 315/3/6 319/3/6
f 319/1/6 316/1/6 320/1/6
f 317/4/6 318/4/6 321/4/6
f 318/3/6 319/3/6 322/3/6
f 321/4/6 318/4/6 322/4/6
f 319/4/6 320/4/6 323/4/6
f 322/3/6 319/3/6 323/3/6
f 323/4/6 320/4/6 324/4/6
f 321/1/6 322/1/6 325/1/6
f 322/3/6 323/3/6 326/3/6
f 325/1/6 322/1/6 326/1/6
f 323/1/6 324/1/6 327/1/6
f 326/3/6 323/3/6 327/3/6
f 327/1/6 324/1/6 328/1/6
f 325/4/6 326/4/6 329/4/6
f 326/3/6 327/3/6 330/3/6
f 329/4/6 326/4/6 330/4/6
f 327/4/6 328/4/6 331/4/6
f 330/3/6 327/3/6 331/3/6
f 331/4/6 328/4/6 332/4/6
f 329/1/6 330/1/6 333/1/6
f 330/3/6 331/3/6 334/3/6
f 333/1/6 330/1/6 334/1/6
f 331/1/6 332/1/6 335/1/6
f 334/3/6 331/3/6 335/3/6
f 335/1/6 332/1/6 336/1/6
f 333/4/6 334/4/6 337/4/6
f 334/3/6 335/3/6 338/3/6
f 337/4/6 334/4/6 338/4/6
f 335/4/6 336/4/6 339/4/6
f 338/3/6 335/3/6 339/3/6
f 339/4/6 336/4/6 340/4/6
f 337/1/6 338/1/6 341/1/6
f 338/3/6 339/3/6 342/3/6
f 341/1/6 338/1/6 342/1/6
f 342/3/6 339/3/6 343/3/6
f 343/3/6 339/3/6 344/3/6
f 344/3/6 339/3/6 345/3/6
f 345/3/6 339/3/6 346/3/6
f 339/1/6 340/1/6 347/1/6
f 346/3/6 339/3/6 347/3/6
f 347/1/6 340/1/6 348/1/6
f 342/3/6 343/3/6 349/3/6
f 343/2/6 344/2/6 349/2/6
f 344/3/6 345/3/6 350/3/6
f 349/2/6 344/2/6 350/2/6
f 345/2/6 346/2/6 351/2/6
f 350/3/6 345/3/6 351/3/6
f 346/3/6 347/3/6 352/3/6
f 351/2/6 346/2/6 352/2/6
f 341/4/6 342/4/6 353/4/6
f 349/3/6 350/3/6 354/3/6
f 353/4/6 342/4/6 354/4/6
f 342/3/6 349/3/6 354/3/6
f 351/3/6 352/3/6 354/3/6
f 350/3/6 351/3/6 354/3/6
f 354/3/6 352/3/6 355/3/6
f 355/3/6 352/3/6 356/3/6
f 356/3/6 352/3/6 357/3/6
f 357/3/6 352/3/6 358/3/6
f 358/3/6 352/3/6 359/3/6
f 359/3/6 352/3/6 360/3/6
f 360/3/6 352/3/6 361/3/6
f 361/3/6 352/3/6 362/3/6
f 362/3/6 352/3/6 363/3/6
f 363/3/6 352/3/6 364/3/6
f 364/3/6 352/3/6 365/3/6
f 365/3/6 352/3/6 366/3/6
f 352/3/6 347/3/6 367/3/6
f 366/3/6 352/3/6 367/3/6
f 347/4/6 348/4/6 367/4/6
f 367/4/6 348/4/6 368/4/6
f 353/1/6 354/1/6 369/1/6
f 354/4/6 355/4/6 370/4/6
f 369/1/6 354/1/6 370/1/6
f 355/1/6 356/1/6 371/1/6
f 370/4/6 355/4/6 371/4/6
f 356/4/6 357/4/6 372/4/6
f 371/1/6 356/1/6 372/1/6
f 357/1/6 358/1/6 373/1/6
f 372/4/6 357/4/6 373/4/6
f 358/4/6 359/4/6 374/4/6
f 373/1/6 358/1/6 374/1/6
f 359/1/6 360/1/6 375/1/6
f 374/4/6 359/4/6 375/4/6
f 360/4/6 361/4/6 376/4/6
f 375/1/6 360/1/6 376/1/6
f 361/1/6 362/1/6 377/1/6
f 376/4/6 361/4/6 377/4/6
f 362/4/6 363/4/6 378/4/6
f 377/1/6 362/1/6 378/1/6
f 363/1/6 364/1/6 379/1/6
f 378/4/6 363/4/6 379/4/6
f 364/4/6 365/4/6 380/4/6
f 379/1/6 364/1/6 380/1/6
f 365/1/6 366/1/6 381/1/6
f 380/4/6 365/4/6 381/4/6
f 366/4/6 367/4/6 382/4/6
f 381/1/6 366/1/6 382/1/6
f 367/1/6 368/1/6 383/1/6
f 382/4/6 367/4/6 383/4/6
f 383/1/6 368/1/6 384/1/6
